<?xml version="1.0" encoding="UTF-8" standalone="no"?>
<!-- Created with Inkscape (http://www.inkscape.org/) -->

<svg
   width="121.78923mm"
   height="110.26347mm"
   viewBox="0 0 121.78923 110.26347"
   version="1.1"
   id="svg1"
   xml:space="preserve"
   sodipodi:docname="brand_emblem.svg"
   inkscape:version="1.4.3 (0d15f75, 2025-12-25)"
   xmlns:inkscape="http://www.inkscape.org/namespaces/inkscape"
   xmlns:sodipodi="http://sodipodi.sourceforge.net/DTD/sodipodi-0.dtd"
   xmlns:xlink="http://www.w3.org/1999/xlink"
   xmlns="http://www.w3.org/2000/svg"
   xmlns:svg="http://www.w3.org/2000/svg"><sodipodi:namedview
     id="namedview1"
     pagecolor="#ffffff"
     bordercolor="#000000"
     borderopacity="0.25"
     inkscape:showpageshadow="2"
     inkscape:pageopacity="0.0"
     inkscape:pagecheckerboard="0"
     inkscape:deskcolor="#d1d1d1"
     inkscape:document-units="mm"
     inkscape:zoom="0.50090723"
     inkscape:cx="345.37334"
     inkscape:cy="-62.885896"
     inkscape:window-width="1920"
     inkscape:window-height="1094"
     inkscape:window-x="-11"
     inkscape:window-y="-11"
     inkscape:window-maximized="1"
     inkscape:current-layer="layer1" /><defs
     id="defs1"><linearGradient
       id="linearGradient56"><stop
         style="stop-color:#000000;stop-opacity:1;"
         offset="0.73872471"
         id="stop56" /><stop
         style="stop-color:#4d4d4d;stop-opacity:0;"
         offset="1"
         id="stop57" /></linearGradient><linearGradient
       id="linearGradient54"><stop
         style="stop-color:#000000;stop-opacity:1;"
         offset="0"
         id="stop54" /><stop
         style="stop-color:#666666;stop-opacity:0;"
         offset="1"
         id="stop55" /></linearGradient><linearGradient
       xlink:href="#linearGradient54"
       id="linearGradient55"
       x1="274.94704"
       y1="348.25863"
       x2="421.94613"
       y2="348.25863"
       gradientUnits="userSpaceOnUse" /><linearGradient
       xlink:href="#linearGradient56"
       id="linearGradient57"
       x1="332.96211"
       y1="360.28297"
       x2="421.8137"
       y2="360.28297"
       gradientUnits="userSpaceOnUse" /></defs><g
     id="layer1"
     transform="translate(0,-131.2491)"><path
       id="path25"
       style="fill:#1a1a1a;stroke:none;stroke-width:3.23023;paint-order:stroke markers fill"
       d="m 55.168865,28.513644 -28.18846,59.231521 h 3.47473 l 19.07738,-18.19527 20.10472,0.0512 19.02416,18.14411 h 6.14743 L 66.620365,28.513684 h -5.72575 z m 4.02508,14.275091 h 1.70067 1.70067 l 8.37158,21.89324 h -6.48694 l 0.001,0.001 -13.64568,-0.0341 z m -1.86604,28.17296 -3.44888,5.27203 11.38328,0.0377 -3.47369,-5.30976 h -2.23035 z m -6.65024,10.16631 -4.32893,6.61716 h 8.82013 5.72575 5.72575 6.14743 l -4.29018,-6.55774 z" /><g
       id="g28"
       transform="translate(-45.883831,-27.743711)"><path
         id="path21"
         style="opacity:1;fill:#ff0000;stroke:none;stroke-width:4.092;stroke-dasharray:none;paint-order:stroke markers fill"
         d="m 106.41988,167.16621 a 49.79895,49.841583 0 0 0 -49.799029,49.8414 49.79895,49.841583 0 0 0 49.799029,49.84192 49.79895,49.841583 0 0 0 49.79903,-49.84192 49.79895,49.841583 0 0 0 -49.79903,-49.8414 z m -5.72575,20.22564 h 5.72575 5.72576 l 28.18846,59.23153 h -6.14743 l -19.02415,-18.14412 -20.104724,-0.0512 -19.077405,18.19528 h -3.47472 z m 4.02508,14.2751 -8.358654,21.86016 13.645674,0.0341 -0.001,-10e-4 h 6.48694 l -8.37158,-21.89323 h -1.70068 z m -1.86604,28.17296 h 2.23036 2.23037 l 3.47369,5.30976 -11.383295,-0.0377 z m -6.650234,10.16631 17.799954,0.0594 4.29019,6.55774 h -6.14743 -5.72576 -5.72575 -8.820134 z" /><path
         style="baseline-shift:baseline;display:inline;overflow:visible;opacity:1;vector-effect:none;paint-order:stroke markers fill;enable-background:accumulate;stop-color:#000000;stop-opacity:1"
         d="m 100.93225,186.89141 -28.664057,60.23242 h 4.466797 l 19.076171,-18.19531 19.705079,0.0508 19.02539,18.14453 h 7.13867 l -28.66406,-60.23244 h -6.04297 z m 0.63282,1 h 5.4082 5.41016 l 27.71289,58.23242 h -5.1543 L 115.91663,227.9793 95.412721,227.9266 76.334599,246.12386 h -2.484375 z m 3.36328,13.27539 -8.740239,22.85742 14.371099,0.0352 1.21094,0.004 -0.004,-0.004 h 6.00586 l -8.75391,-22.89258 h -2.04483 z m 0.68945,1 h 1.35547 1.35742 l 7.98828,20.89258 h -6.51562 l -12.162109,-0.0312 z m -2.48047,27.17188 -4.101559,6.26953 13.232419,0.0449 -4.1289,-6.31445 h -2.50196 z m 0.54102,1 h 1.95898 1.96094 l 2.81641,4.30664 -9.53321,-0.0293 z m -7.191409,9.16601 -4.98242,7.61914 h 9.744139 5.72461 5.72656 7.07227 l -4.94336,-7.55859 z m 0.54102,1.00196 17.257809,0.0586 3.63672,5.55859 h -5.22266 -5.72656 -5.72461 -7.896479 z"
         id="path27" /></g></g></svg>
